<svg width="226" height="140" viewBox="0 0 226 140" fill="none" xmlns="http://www.w3.org/2000/svg">
<path fill-rule="evenodd" clip-rule="evenodd" d="M31.0032 22.3654L31.0108 1L38.001 5.8233V123.188L31.0085 118.367L31.0095 118.365H31.001V22.3654H31.0032ZM43.001 126.635V9.27334L50.001 14.1034V131.462L43.001 126.635ZM55.001 134.909L62.001 139.735V113.222L62.001 22.3654H61.9748L55.001 17.5534V134.909Z" fill="#CA0000"/>
<path d="M106.845 115.783C106.76 116.167 106.64 116.857 106.483 117.854C105.78 118.003 105.188 118.104 104.706 118.156C104.224 118.208 103.739 118.234 103.251 118.234C102.398 118.234 101.633 118.15 100.956 117.98C100.286 117.811 99.6964 117.502 99.1885 117.053C98.6807 116.597 98.3064 116.04 98.0655 115.383C97.8246 114.725 97.7042 114.035 97.7042 113.312C97.7042 112.512 97.8441 111.737 98.1241 110.988C98.404 110.233 98.7947 109.618 99.296 109.143C99.8038 108.661 100.38 108.322 101.024 108.127C101.669 107.925 102.343 107.824 103.046 107.824C103.71 107.824 104.342 107.909 104.94 108.078C105.539 108.241 106.041 108.511 106.444 108.889C106.855 109.266 107.167 109.722 107.382 110.256C107.603 110.783 107.714 111.372 107.714 112.023C107.714 112.329 107.681 112.645 107.616 112.971L100.458 112.98C100.445 113.221 100.439 113.413 100.439 113.557C100.439 113.993 100.513 114.393 100.663 114.758C100.813 115.122 101.031 115.432 101.317 115.686C101.604 115.939 101.946 116.128 102.343 116.252C102.74 116.369 103.131 116.428 103.515 116.428C103.964 116.428 104.449 116.379 104.97 116.281C105.497 116.184 106.122 116.018 106.845 115.783ZM100.536 111.838L105.107 111.848C105.107 111.535 105.097 111.304 105.077 111.154C105.058 111.005 105.012 110.835 104.94 110.646C104.875 110.451 104.784 110.282 104.667 110.139C104.55 109.989 104.413 109.865 104.257 109.768C104.101 109.67 103.918 109.595 103.71 109.543C103.508 109.491 103.29 109.465 103.056 109.465C102.782 109.465 102.515 109.507 102.255 109.592C102.001 109.676 101.767 109.8 101.552 109.963C101.337 110.126 101.161 110.308 101.024 110.51C100.894 110.712 100.797 110.907 100.732 111.096C100.666 111.278 100.601 111.525 100.536 111.838ZM109.12 118C109.27 116.522 109.394 114.862 109.491 113.02C109.595 111.177 109.654 109.527 109.667 108.068C110.266 108.081 110.745 108.088 111.103 108.088C111.526 108.088 111.975 108.081 112.45 108.068L112.343 109.729C112.545 109.442 112.72 109.214 112.87 109.045C113.026 108.876 113.222 108.71 113.456 108.547C113.697 108.384 113.951 108.254 114.218 108.156C114.491 108.059 114.794 107.98 115.126 107.922C115.465 107.863 115.816 107.834 116.181 107.834C116.76 107.834 117.314 107.909 117.841 108.059C118.375 108.202 118.804 108.433 119.13 108.752C119.455 109.071 119.67 109.419 119.774 109.797C119.879 110.174 119.931 110.575 119.931 110.998C119.931 111.174 119.921 111.454 119.901 111.838L119.696 116.105C119.67 116.698 119.654 117.329 119.648 118C119.133 117.987 118.694 117.98 118.329 117.98C117.834 117.98 117.336 117.987 116.835 118C116.887 117.434 116.952 116.447 117.03 115.041C117.108 113.628 117.148 112.694 117.148 112.238C117.148 111.724 117.066 111.311 116.903 110.998C116.741 110.686 116.487 110.448 116.142 110.285C115.803 110.122 115.435 110.041 115.038 110.041C114.648 110.041 114.283 110.116 113.944 110.266C113.606 110.415 113.313 110.633 113.065 110.92C112.805 111.213 112.603 111.574 112.46 112.004C112.31 112.46 112.2 113.212 112.128 114.26C112.063 115.191 112.011 116.438 111.972 118C111.47 117.987 111.018 117.98 110.614 117.98C110.204 117.98 109.706 117.987 109.12 118ZM122.704 120.07C124.169 120.552 125.439 120.793 126.513 120.793C126.923 120.793 127.31 120.741 127.675 120.637C128.039 120.539 128.345 120.393 128.593 120.197C128.84 120.008 129.032 119.748 129.169 119.416C129.306 119.09 129.397 118.71 129.442 118.273C129.488 117.844 129.524 117.189 129.55 116.311C129.296 116.656 129.068 116.926 128.866 117.121C128.664 117.31 128.42 117.482 128.134 117.639C127.854 117.788 127.525 117.909 127.148 118C126.77 118.098 126.373 118.146 125.956 118.146C125.383 118.146 124.84 118.059 124.325 117.883C123.811 117.701 123.352 117.417 122.948 117.033C122.551 116.649 122.248 116.167 122.04 115.588C121.832 115.002 121.728 114.393 121.728 113.762C121.728 112.857 121.897 112.001 122.235 111.193C122.58 110.386 123.082 109.722 123.739 109.201C124.403 108.68 125.11 108.322 125.858 108.127C126.614 107.932 127.45 107.834 128.368 107.834C128.876 107.834 129.452 107.867 130.097 107.932C130.741 107.99 131.594 108.114 132.655 108.303L132.431 111.398L132.226 115.275L132.148 118.781C132.128 119.178 132.079 119.559 132.001 119.924C131.923 120.295 131.799 120.627 131.63 120.92C131.461 121.219 131.246 121.483 130.985 121.711C130.725 121.939 130.429 122.121 130.097 122.258C129.771 122.401 129.364 122.518 128.876 122.609C128.394 122.701 127.877 122.746 127.323 122.746C126.731 122.746 126.057 122.707 125.302 122.629C124.547 122.551 123.723 122.404 122.831 122.189L122.704 120.07ZM129.833 110.021C129.267 109.904 128.743 109.846 128.261 109.846C127.414 109.846 126.715 110.002 126.161 110.314C125.608 110.62 125.181 111.07 124.882 111.662C124.582 112.255 124.433 112.883 124.433 113.547C124.433 114.035 124.524 114.491 124.706 114.914C124.888 115.331 125.172 115.646 125.556 115.861C125.946 116.076 126.376 116.184 126.845 116.184C127.177 116.184 127.486 116.132 127.773 116.027C128.065 115.923 128.329 115.764 128.564 115.549C128.798 115.334 129.003 115.067 129.179 114.748C129.361 114.429 129.488 114.071 129.56 113.674C129.638 113.27 129.696 112.769 129.735 112.17C129.774 111.564 129.807 110.848 129.833 110.021ZM143.485 115.783C143.401 116.167 143.28 116.857 143.124 117.854C142.421 118.003 141.829 118.104 141.347 118.156C140.865 118.208 140.38 118.234 139.892 118.234C139.039 118.234 138.274 118.15 137.597 117.98C136.926 117.811 136.337 117.502 135.829 117.053C135.321 116.597 134.947 116.04 134.706 115.383C134.465 114.725 134.345 114.035 134.345 113.312C134.345 112.512 134.485 111.737 134.765 110.988C135.045 110.233 135.435 109.618 135.937 109.143C136.444 108.661 137.021 108.322 137.665 108.127C138.31 107.925 138.983 107.824 139.687 107.824C140.351 107.824 140.982 107.909 141.581 108.078C142.18 108.241 142.681 108.511 143.085 108.889C143.495 109.266 143.808 109.722 144.023 110.256C144.244 110.783 144.355 111.372 144.355 112.023C144.355 112.329 144.322 112.645 144.257 112.971L137.099 112.98C137.086 113.221 137.079 113.413 137.079 113.557C137.079 113.993 137.154 114.393 137.304 114.758C137.454 115.122 137.672 115.432 137.958 115.686C138.245 115.939 138.586 116.128 138.983 116.252C139.381 116.369 139.771 116.428 140.155 116.428C140.605 116.428 141.09 116.379 141.61 116.281C142.138 116.184 142.763 116.018 143.485 115.783ZM137.177 111.838L141.747 111.848C141.747 111.535 141.737 111.304 141.718 111.154C141.698 111.005 141.653 110.835 141.581 110.646C141.516 110.451 141.425 110.282 141.308 110.139C141.19 109.989 141.054 109.865 140.898 109.768C140.741 109.67 140.559 109.595 140.351 109.543C140.149 109.491 139.931 109.465 139.696 109.465C139.423 109.465 139.156 109.507 138.896 109.592C138.642 109.676 138.407 109.8 138.192 109.963C137.978 110.126 137.802 110.308 137.665 110.51C137.535 110.712 137.437 110.907 137.372 111.096C137.307 111.278 137.242 111.525 137.177 111.838ZM145.761 118C145.911 116.522 146.034 114.862 146.132 113.02C146.236 111.177 146.295 109.527 146.308 108.068C146.907 108.081 147.385 108.088 147.743 108.088C148.166 108.088 148.616 108.081 149.091 108.068L148.983 109.729C149.185 109.442 149.361 109.214 149.511 109.045C149.667 108.876 149.862 108.71 150.097 108.547C150.338 108.384 150.592 108.254 150.858 108.156C151.132 108.059 151.435 107.98 151.767 107.922C152.105 107.863 152.457 107.834 152.821 107.834C153.401 107.834 153.954 107.909 154.482 108.059C155.015 108.202 155.445 108.433 155.771 108.752C156.096 109.071 156.311 109.419 156.415 109.797C156.519 110.174 156.571 110.575 156.571 110.998C156.571 111.174 156.562 111.454 156.542 111.838L156.337 116.105C156.311 116.698 156.295 117.329 156.288 118C155.774 117.987 155.334 117.98 154.97 117.98C154.475 117.98 153.977 117.987 153.476 118C153.528 117.434 153.593 116.447 153.671 115.041C153.749 113.628 153.788 112.694 153.788 112.238C153.788 111.724 153.707 111.311 153.544 110.998C153.381 110.686 153.127 110.448 152.782 110.285C152.444 110.122 152.076 110.041 151.679 110.041C151.288 110.041 150.924 110.116 150.585 110.266C150.246 110.415 149.954 110.633 149.706 110.92C149.446 111.213 149.244 111.574 149.101 112.004C148.951 112.46 148.84 113.212 148.769 114.26C148.704 115.191 148.651 116.438 148.612 118C148.111 117.987 147.659 117.98 147.255 117.98C146.845 117.98 146.347 117.987 145.761 118ZM158.642 118L158.876 114.826L159.11 110.285L159.247 104.67C159.82 104.683 160.295 104.689 160.673 104.689C161.168 104.689 161.64 104.683 162.089 104.67L161.913 106.994C161.874 107.567 161.822 108.488 161.757 109.758C161.965 109.445 162.138 109.211 162.274 109.055C162.418 108.898 162.574 108.755 162.743 108.625C162.919 108.488 163.098 108.374 163.28 108.283C163.463 108.192 163.674 108.111 163.915 108.039C164.162 107.967 164.436 107.912 164.735 107.873C165.035 107.834 165.341 107.814 165.653 107.814C166.194 107.814 166.711 107.876 167.206 108C167.707 108.124 168.137 108.332 168.495 108.625C168.86 108.918 169.107 109.263 169.237 109.66C169.374 110.051 169.442 110.461 169.442 110.891C169.442 111.171 169.426 111.607 169.394 112.199L169.159 116.467C169.14 116.91 169.13 117.421 169.13 118C168.603 117.987 168.137 117.98 167.733 117.98C167.297 117.98 166.799 117.987 166.239 118C166.33 117.232 166.418 116.184 166.503 114.855C166.594 113.527 166.64 112.583 166.64 112.023C166.64 111.509 166.555 111.109 166.386 110.822C166.223 110.529 165.979 110.314 165.653 110.178C165.334 110.035 164.983 109.963 164.599 109.963C164.104 109.963 163.668 110.051 163.29 110.227C162.926 110.396 162.62 110.65 162.372 110.988C162.17 111.268 162.001 111.669 161.864 112.189C161.721 112.736 161.617 113.583 161.552 114.729C161.519 115.282 161.483 116.372 161.444 118C160.93 117.987 160.487 117.98 160.116 117.98C159.765 117.98 159.273 117.987 158.642 118ZM172.265 110.246C172.356 109.777 172.411 109.449 172.431 109.26C172.457 109.071 172.499 108.785 172.558 108.4C173.443 108.192 174.224 108.046 174.901 107.961C175.579 107.876 176.233 107.834 176.864 107.834C177.58 107.834 178.238 107.919 178.837 108.088C179.436 108.251 179.905 108.514 180.243 108.879C180.582 109.243 180.751 109.768 180.751 110.451C180.751 110.822 180.699 111.77 180.595 113.293C180.491 114.81 180.429 116.379 180.409 118C179.914 117.987 179.459 117.98 179.042 117.98C178.645 117.98 178.179 117.987 177.646 118C177.73 117.212 177.799 116.301 177.851 115.266L177.978 112.834C177.73 112.997 177.541 113.111 177.411 113.176C177.281 113.241 177.135 113.303 176.972 113.361C176.809 113.413 176.523 113.498 176.112 113.615C175.702 113.726 175.373 113.824 175.126 113.908C174.879 113.993 174.654 114.09 174.452 114.201C174.257 114.305 174.091 114.426 173.954 114.562C173.817 114.693 173.717 114.833 173.651 114.982C173.593 115.126 173.564 115.282 173.564 115.451C173.564 115.725 173.642 115.962 173.798 116.164C173.961 116.359 174.162 116.496 174.403 116.574C174.644 116.652 174.927 116.691 175.253 116.691C175.461 116.691 175.679 116.675 175.907 116.643C176.142 116.61 176.454 116.529 176.845 116.398C176.708 116.77 176.549 117.323 176.366 118.059C175.904 118.137 175.536 118.186 175.263 118.205C174.989 118.225 174.735 118.234 174.501 118.234C173.681 118.234 173.007 118.124 172.48 117.902C171.952 117.681 171.562 117.329 171.308 116.848C171.06 116.366 170.937 115.881 170.937 115.393C170.937 115.113 170.985 114.836 171.083 114.562C171.181 114.289 171.324 114.038 171.513 113.811C171.702 113.583 171.946 113.365 172.245 113.156C172.545 112.941 172.978 112.736 173.544 112.541C174.11 112.339 174.859 112.137 175.79 111.936C176.037 111.883 176.295 111.822 176.562 111.75C176.829 111.672 177.04 111.597 177.196 111.525C177.359 111.454 177.499 111.363 177.616 111.252C177.733 111.135 177.818 111.014 177.87 110.891C177.929 110.767 177.958 110.64 177.958 110.51C177.958 110.256 177.873 110.041 177.704 109.865C177.541 109.689 177.327 109.569 177.06 109.504C176.799 109.432 176.51 109.396 176.19 109.396C175.006 109.396 173.697 109.68 172.265 110.246ZM182.851 118L183.134 113.361L183.212 110.666C183.225 110.113 183.232 109.556 183.232 108.996C183.232 108.898 183.225 108.589 183.212 108.068C183.817 108.081 184.263 108.088 184.55 108.088C184.882 108.088 185.321 108.081 185.868 108.068L185.819 109.445C186.067 109.094 186.278 108.833 186.454 108.664C186.63 108.488 186.825 108.339 187.04 108.215C187.261 108.091 187.506 107.997 187.773 107.932C188.039 107.867 188.313 107.834 188.593 107.834C188.853 107.834 189.12 107.867 189.394 107.932C189.394 108.537 189.423 109.305 189.482 110.236C189.097 110.132 188.749 110.08 188.437 110.08C188.059 110.08 187.724 110.139 187.431 110.256C187.144 110.367 186.884 110.539 186.649 110.773C186.422 111.001 186.233 111.285 186.083 111.623C185.959 111.896 185.868 112.251 185.81 112.688C185.758 113.026 185.712 113.605 185.673 114.426C185.64 115.246 185.624 116.053 185.624 116.848C185.624 117.154 185.634 117.538 185.653 118C185.159 117.987 184.706 117.98 184.296 117.98C183.892 117.98 183.411 117.987 182.851 118ZM191.161 106.369C191.187 105.699 191.2 105.184 191.2 104.826V104.514C191.793 104.527 192.274 104.533 192.646 104.533C193.153 104.533 193.625 104.527 194.062 104.514C194.042 104.676 194.029 104.862 194.023 105.07L193.974 106.369C193.479 106.356 193.023 106.35 192.607 106.35C192.19 106.35 191.708 106.356 191.161 106.369ZM190.634 118C190.732 117.023 190.8 116.206 190.839 115.549C190.904 114.507 190.959 113.306 191.005 111.945C191.057 110.585 191.093 109.292 191.112 108.068C191.75 108.081 192.229 108.088 192.548 108.088C192.841 108.088 193.316 108.081 193.974 108.068C193.883 109.201 193.808 110.282 193.749 111.311C193.697 112.339 193.658 113.518 193.632 114.846C193.606 116.174 193.593 117.225 193.593 118C193 117.987 192.525 117.98 192.167 117.98C191.829 117.98 191.317 117.987 190.634 118ZM196.718 110.246C196.809 109.777 196.864 109.449 196.884 109.26C196.91 109.071 196.952 108.785 197.011 108.4C197.896 108.192 198.677 108.046 199.355 107.961C200.032 107.876 200.686 107.834 201.317 107.834C202.034 107.834 202.691 107.919 203.29 108.088C203.889 108.251 204.358 108.514 204.696 108.879C205.035 109.243 205.204 109.768 205.204 110.451C205.204 110.822 205.152 111.77 205.048 113.293C204.944 114.81 204.882 116.379 204.862 118C204.368 117.987 203.912 117.98 203.495 117.98C203.098 117.98 202.633 117.987 202.099 118C202.183 117.212 202.252 116.301 202.304 115.266L202.431 112.834C202.183 112.997 201.995 113.111 201.864 113.176C201.734 113.241 201.588 113.303 201.425 113.361C201.262 113.413 200.976 113.498 200.565 113.615C200.155 113.726 199.827 113.824 199.579 113.908C199.332 113.993 199.107 114.09 198.905 114.201C198.71 114.305 198.544 114.426 198.407 114.562C198.271 114.693 198.17 114.833 198.105 114.982C198.046 115.126 198.017 115.282 198.017 115.451C198.017 115.725 198.095 115.962 198.251 116.164C198.414 116.359 198.616 116.496 198.857 116.574C199.097 116.652 199.381 116.691 199.706 116.691C199.914 116.691 200.133 116.675 200.36 116.643C200.595 116.61 200.907 116.529 201.298 116.398C201.161 116.77 201.002 117.323 200.819 118.059C200.357 118.137 199.989 118.186 199.716 118.205C199.442 118.225 199.189 118.234 198.954 118.234C198.134 118.234 197.46 118.124 196.933 117.902C196.405 117.681 196.015 117.329 195.761 116.848C195.513 116.366 195.39 115.881 195.39 115.393C195.39 115.113 195.439 114.836 195.536 114.562C195.634 114.289 195.777 114.038 195.966 113.811C196.155 113.583 196.399 113.365 196.698 113.156C196.998 112.941 197.431 112.736 197.997 112.541C198.564 112.339 199.312 112.137 200.243 111.936C200.491 111.883 200.748 111.822 201.015 111.75C201.282 111.672 201.493 111.597 201.649 111.525C201.812 111.454 201.952 111.363 202.069 111.252C202.187 111.135 202.271 111.014 202.323 110.891C202.382 110.767 202.411 110.64 202.411 110.51C202.411 110.256 202.327 110.041 202.157 109.865C201.995 109.689 201.78 109.569 201.513 109.504C201.252 109.432 200.963 109.396 200.644 109.396C199.459 109.396 198.15 109.68 196.718 110.246Z" fill="#F2F2F2"/>
<rect x="2.00104" y="39" width="222" height="61" rx="30.5" fill="#F2F2F2" stroke="black" stroke-width="4"/>
<path d="M21.4634 94.0854C21.8297 89.9985 22.1592 84.7031 22.4522 78.1992C22.7452 71.6953 22.8917 66.4146 22.8917 62.3569C25.6749 61.8589 27.8282 61.5293 29.3516 61.3682C30.8751 61.207 32.3912 61.1265 33.9 61.1265C35.8775 61.1265 37.6866 61.3608 39.3272 61.8296C40.9825 62.2983 42.3008 63.082 43.2823 64.1807C44.2784 65.2793 45.0108 66.5537 45.4796 68.0039C45.963 69.4541 46.2047 70.9702 46.2047 72.5522C46.2047 74.1489 45.9776 75.687 45.5235 77.1665C45.0694 78.646 44.3736 79.979 43.4361 81.1655C42.4986 82.3374 41.4073 83.1943 40.1622 83.7363C38.9317 84.2637 37.584 84.5273 36.1192 84.5273C35.2549 84.5273 34.398 84.4248 33.5484 84.2197C32.7134 84.0146 31.9737 83.7437 31.3292 83.4067C30.6993 83.0698 30.1793 82.7329 29.7691 82.396C29.3589 82.0444 28.8389 81.5244 28.209 80.8359L27.8795 90.394L27.8575 91.8882C27.8428 92.0786 27.8355 92.811 27.8355 94.0854C26.4879 94.0708 25.4478 94.0635 24.7154 94.0635L21.4634 94.0854ZM28.9561 66.3999C28.8536 67.1909 28.7803 67.8721 28.7364 68.4434L28.6046 70.8823C28.546 71.937 28.5167 72.7134 28.5167 73.2114C28.5167 74.105 28.6046 74.9619 28.7803 75.7822C28.9708 76.6025 29.337 77.3569 29.879 78.0454C30.4356 78.7339 31.0875 79.2612 31.8345 79.6274C32.5963 79.979 33.3799 80.1548 34.1856 80.1548C35.2989 80.1548 36.3096 79.8398 37.2178 79.21C38.1407 78.5654 38.8511 77.6279 39.3492 76.3975C39.8472 75.167 40.0963 73.856 40.0963 72.4644C40.0963 70.9263 39.8179 69.6299 39.2613 68.5752C38.7193 67.5059 37.9869 66.7295 37.064 66.2461C36.1412 65.7627 35.0938 65.521 33.9219 65.521C32.3985 65.521 30.7432 65.814 28.9561 66.3999ZM49.9839 84L50.6212 73.563L50.7969 67.4985C50.8262 66.2534 50.8409 65.001 50.8409 63.7412C50.8409 63.5215 50.8262 62.8257 50.7969 61.6538C52.1592 61.6831 53.1627 61.6978 53.8072 61.6978C54.5543 61.6978 55.543 61.6831 56.7735 61.6538L56.6636 64.752C57.2203 63.9609 57.6964 63.375 58.0919 62.9941C58.4874 62.5986 58.9268 62.2617 59.4102 61.9834C59.9083 61.7051 60.4576 61.4927 61.0582 61.3462C61.6588 61.1997 62.274 61.1265 62.9039 61.1265C63.4898 61.1265 64.0904 61.1997 64.7056 61.3462C64.7056 62.7085 64.7715 64.437 64.9034 66.5317C64.0391 66.2974 63.2554 66.1802 62.5523 66.1802C61.7027 66.1802 60.9483 66.312 60.2891 66.5757C59.6446 66.8247 59.0587 67.2129 58.5313 67.7402C58.0186 68.2529 57.5938 68.8901 57.2569 69.6519C56.9786 70.2671 56.7735 71.0654 56.6417 72.0469C56.5245 72.8086 56.4219 74.1123 56.334 75.958C56.2608 77.8037 56.2242 79.6201 56.2242 81.4072C56.2242 82.0957 56.2462 82.96 56.2901 84C55.1768 83.9707 54.1588 83.9561 53.2359 83.9561C52.3277 83.9561 51.2437 83.9707 49.9839 84ZM79.5152 61.1265C81.1998 61.1265 82.8111 61.3828 84.3492 61.8955C85.9019 62.3936 87.213 63.1406 88.2823 64.1367C89.3663 65.1182 90.1793 66.3267 90.7213 67.7622C91.2632 69.1831 91.5342 70.6846 91.5342 72.2666C91.5342 73.9365 91.2486 75.5479 90.6773 77.1006C90.106 78.6533 89.2784 80.001 88.1944 81.1436C87.1104 82.2715 85.7554 83.1211 84.1295 83.6924C82.5181 84.249 80.7969 84.5273 78.9659 84.5273C77.2667 84.5273 75.648 84.2783 74.1099 83.7803C72.5865 83.2676 71.2828 82.5059 70.1988 81.4951C69.1148 80.4844 68.2872 79.2539 67.7159 77.8037C67.1592 76.3535 66.8809 74.8374 66.8809 73.2554C66.8809 71.644 67.1373 70.106 67.65 68.6411C68.1627 67.1763 68.961 65.8726 70.045 64.73C71.1436 63.5874 72.5425 62.7012 74.2418 62.0713C75.941 61.4414 77.6988 61.1265 79.5152 61.1265ZM79.5152 65.6528C78.2408 65.6528 77.0982 65.9678 76.0875 66.5977C75.0914 67.2129 74.3443 68.1357 73.8463 69.3662C73.3629 70.5967 73.1212 71.937 73.1212 73.3872C73.1212 74.6616 73.3189 75.7969 73.7144 76.793C74.1246 77.7891 74.7838 78.5947 75.692 79.21C76.6148 79.8252 77.7061 80.1328 78.9659 80.1328C80.2549 80.1328 81.3829 79.8179 82.3497 79.188C83.3311 78.5435 84.0635 77.606 84.5469 76.3755C85.045 75.1304 85.294 73.7607 85.294 72.2666C85.294 71.0508 85.1036 69.9448 84.7227 68.9487C84.3419 67.9526 83.6973 67.1543 82.7891 66.5537C81.8956 65.9531 80.8043 65.6528 79.5152 65.6528ZM96.4781 57.7646C96.566 56.2412 96.6246 54.8716 96.6539 53.6558C97.606 53.6851 98.668 53.6997 99.8399 53.6997C100.895 53.6997 101.949 53.6851 103.004 53.6558L102.872 55.7432C102.872 55.8164 102.843 56.4902 102.784 57.7646C101.686 57.7354 100.638 57.7207 99.6422 57.7207C98.6168 57.7207 97.5621 57.7354 96.4781 57.7646ZM102.674 61.6538L102.235 71.4536L101.927 81.2754C101.825 85.3623 101.722 87.8159 101.62 88.6362C101.488 89.6909 101.29 90.5112 101.026 91.0972C100.807 91.6099 100.528 92.064 100.191 92.4595C99.8399 92.855 99.4005 93.2139 98.8731 93.5361C98.3018 93.8877 97.6793 94.1514 97.0054 94.3271C96.0533 94.5615 94.94 94.6787 93.6656 94.6787C92.8746 94.6787 91.9297 94.6274 90.8311 94.5249C89.7325 94.437 88.4947 94.2539 87.1177 93.9756L86.898 91.1411L86.6783 89.2515C88.1871 89.7642 89.5714 90.0205 90.8311 90.0205C91.4903 90.0205 92.0982 89.9253 92.6548 89.7349C93.1968 89.5591 93.6583 89.3174 94.0391 89.0098C94.3028 88.7754 94.5298 88.4971 94.7203 88.1748C95.0279 87.6328 95.2549 86.9663 95.4014 86.1753C95.5626 85.3843 95.7237 83.4287 95.8848 80.3086C96.002 77.9355 96.0972 75.1597 96.1705 71.981C96.2877 67.8354 96.3463 65.0596 96.3463 63.6533V61.6538C97.6793 61.6831 98.7486 61.6978 99.5543 61.6978C100.404 61.6978 101.444 61.6831 102.674 61.6538ZM127.35 79.0122C127.159 79.8765 126.888 81.4292 126.537 83.6704C124.955 84.0073 123.622 84.2344 122.538 84.3516C121.454 84.4688 120.362 84.5273 119.264 84.5273C117.345 84.5273 115.624 84.3369 114.1 83.9561C112.591 83.5752 111.266 82.8794 110.123 81.8687C108.981 80.8433 108.138 79.5908 107.596 78.1113C107.054 76.6318 106.783 75.0791 106.783 73.4531C106.783 71.6514 107.098 69.9082 107.728 68.2236C108.358 66.5244 109.237 65.1401 110.365 64.0708C111.507 62.9868 112.804 62.2251 114.254 61.7856C115.704 61.3315 117.22 61.1045 118.802 61.1045C120.296 61.1045 121.717 61.2949 123.065 61.6758C124.413 62.042 125.541 62.6499 126.449 63.4995C127.372 64.3491 128.075 65.3745 128.558 66.5757C129.056 67.7622 129.305 69.0879 129.305 70.5527C129.305 71.2412 129.232 71.9517 129.086 72.6841L112.98 72.7061C112.95 73.248 112.936 73.6802 112.936 74.0024C112.936 74.9839 113.104 75.8848 113.441 76.7051C113.778 77.5254 114.269 78.2212 114.913 78.7925C115.558 79.3638 116.327 79.7886 117.22 80.0669C118.114 80.3306 118.993 80.4624 119.857 80.4624C120.868 80.4624 121.959 80.3525 123.131 80.1328C124.317 79.9131 125.724 79.5396 127.35 79.0122ZM113.155 70.1353L123.439 70.1572C123.439 69.4541 123.417 68.9341 123.373 68.5972C123.329 68.2603 123.226 67.8794 123.065 67.4546C122.919 67.0151 122.713 66.6343 122.45 66.312C122.186 65.9751 121.878 65.6968 121.527 65.4771C121.175 65.2573 120.765 65.0889 120.296 64.9717C119.842 64.8545 119.352 64.7959 118.824 64.7959C118.209 64.7959 117.608 64.8911 117.023 65.0815C116.451 65.272 115.924 65.5503 115.44 65.9165C114.957 66.2827 114.562 66.6929 114.254 67.147C113.961 67.6011 113.741 68.0405 113.595 68.4653C113.448 68.8755 113.302 69.4321 113.155 70.1353ZM132.03 83.5825L131.546 78.7485C132.982 79.3345 134.198 79.7446 135.194 79.979C136.19 80.1987 137.106 80.3086 137.94 80.3086C138.775 80.3086 139.479 80.2134 140.05 80.0229C140.621 79.8179 141.046 79.5249 141.324 79.144C141.603 78.7485 141.742 78.3384 141.742 77.9136C141.742 77.7231 141.72 77.5474 141.676 77.3862C141.647 77.2251 141.581 77.0566 141.478 76.8809C141.39 76.7051 141.28 76.5439 141.148 76.3975C141.031 76.2363 140.863 76.0605 140.643 75.8701C140.423 75.665 140.108 75.4087 139.698 75.1011L138.512 74.1562C137.369 73.2627 136.498 72.5596 135.897 72.0469C135.296 71.5342 134.791 71.0142 134.381 70.4868C133.971 69.9448 133.656 69.3809 133.436 68.7949C133.231 68.1943 133.128 67.5864 133.128 66.9712C133.128 65.9019 133.451 64.8838 134.095 63.917C134.754 62.9502 135.707 62.2471 136.952 61.8076C138.197 61.3535 139.662 61.1265 141.346 61.1265C143.265 61.1265 145.477 61.3535 147.982 61.8076L148.268 66.3999C146.568 65.7114 144.935 65.3672 143.368 65.3672C142.518 65.3672 141.771 65.4551 141.127 65.6309C140.497 65.792 140.043 66.0483 139.764 66.3999C139.486 66.7368 139.347 67.1177 139.347 67.5425C139.347 67.7915 139.391 68.0405 139.479 68.2896C139.566 68.5239 139.72 68.7729 139.94 69.0366C140.16 69.3003 140.409 69.5493 140.687 69.7837C140.98 70.0181 141.581 70.4795 142.489 71.168C143.397 71.8564 144.188 72.479 144.862 73.0356C145.55 73.5923 146.114 74.1562 146.554 74.7275C146.993 75.2842 147.33 75.8848 147.565 76.5293C147.799 77.1738 147.916 77.8257 147.916 78.4849C147.916 79.5835 147.579 80.6016 146.905 81.5391C146.232 82.4766 145.213 83.209 143.851 83.7363C142.489 84.2637 140.965 84.5273 139.281 84.5273C138.402 84.5273 137.333 84.4541 136.073 84.3076C134.813 84.1758 133.465 83.9341 132.03 83.5825ZM164.374 61.1265C166.058 61.1265 167.669 61.3828 169.208 61.8955C170.76 62.3936 172.071 63.1406 173.141 64.1367C174.225 65.1182 175.038 66.3267 175.58 67.7622C176.122 69.1831 176.393 70.6846 176.393 72.2666C176.393 73.9365 176.107 75.5479 175.536 77.1006C174.964 78.6533 174.137 80.001 173.053 81.1436C171.969 82.2715 170.614 83.1211 168.988 83.6924C167.377 84.249 165.655 84.5273 163.824 84.5273C162.125 84.5273 160.506 84.2783 158.968 83.7803C157.445 83.2676 156.141 82.5059 155.057 81.4951C153.973 80.4844 153.146 79.2539 152.574 77.8037C152.018 76.3535 151.739 74.8374 151.739 73.2554C151.739 71.644 151.996 70.106 152.508 68.6411C153.021 67.1763 153.819 65.8726 154.903 64.73C156.002 63.5874 157.401 62.7012 159.1 62.0713C160.799 61.4414 162.557 61.1265 164.374 61.1265ZM164.374 65.6528C163.099 65.6528 161.957 65.9678 160.946 66.5977C159.95 67.2129 159.203 68.1357 158.705 69.3662C158.221 70.5967 157.98 71.937 157.98 73.3872C157.98 74.6616 158.177 75.7969 158.573 76.793C158.983 77.7891 159.642 78.5947 160.55 79.21C161.473 79.8252 162.565 80.1328 163.824 80.1328C165.113 80.1328 166.241 79.8179 167.208 79.188C168.19 78.5435 168.922 77.606 169.405 76.3755C169.903 75.1304 170.152 73.7607 170.152 72.2666C170.152 71.0508 169.962 69.9448 169.581 68.9487C169.2 67.9526 168.556 67.1543 167.648 66.5537C166.754 65.9531 165.663 65.6528 164.374 65.6528ZM180.985 84L181.249 80.3745L181.908 66.0923H179.183C179.227 65.6528 179.271 64.9424 179.315 63.9609C179.374 62.9648 179.41 62.2397 179.425 61.7856H182.413V60.9067C182.413 59.3394 182.479 58.1455 182.611 57.3252C182.743 56.4902 182.984 55.8091 183.336 55.2817C183.702 54.7544 184.208 54.3003 184.852 53.9194C185.511 53.5239 186.229 53.2603 187.005 53.1284C187.782 52.9819 188.58 52.9087 189.4 52.9087C191.07 52.9087 192.836 53.1431 194.696 53.6118C194.74 55.2524 194.82 56.6587 194.938 57.8306C193.531 57.3325 192.25 57.0835 191.092 57.0835C190.638 57.0835 190.221 57.1421 189.84 57.2593C189.459 57.3618 189.144 57.5083 188.895 57.6987C188.661 57.8892 188.463 58.1382 188.302 58.4458C188.141 58.7534 188.031 59.1196 187.972 59.5444C187.914 59.9546 187.884 60.4307 187.884 60.9727V61.7856H193.487C193.399 62.7964 193.312 64.2319 193.224 66.0923H187.95C187.672 71.9224 187.46 77.8916 187.313 84C185.98 83.9707 184.918 83.9561 184.127 83.9561C183.321 83.9561 182.274 83.9707 180.985 84ZM209.352 79.4077C209.176 80.2134 208.898 81.7075 208.517 83.8901C207.286 84.1685 206.319 84.3442 205.616 84.4175C204.913 84.4907 204.254 84.5273 203.639 84.5273C202.555 84.5273 201.581 84.4248 200.716 84.2197C199.867 84.0146 199.164 83.6558 198.607 83.1431C198.05 82.6157 197.669 82.0078 197.464 81.3193C197.274 80.6162 197.179 79.8911 197.179 79.144C197.179 78.9536 197.186 78.6973 197.201 78.375C197.215 78.0527 197.274 77.0127 197.377 75.2549L197.882 66.1143H194.718C194.791 65.2354 194.857 63.8218 194.916 61.8735H198.233C198.321 61.0239 198.409 59.5811 198.497 57.5449L201.09 57.0396C201.632 56.937 202.679 56.6953 204.232 56.3145C204.129 58.292 204.071 60.145 204.056 61.8735H209.637C209.535 63.8511 209.483 65.2646 209.483 66.1143H203.88C203.573 72.0762 203.419 75.5259 203.419 76.4634C203.419 77.3716 203.514 78.0747 203.705 78.5728C203.91 79.0708 204.232 79.4297 204.671 79.6494C205.111 79.8691 205.58 79.979 206.078 79.979C206.444 79.979 206.825 79.9497 207.22 79.8911C207.63 79.8325 208.341 79.6714 209.352 79.4077Z" fill="black"/>
</svg>
